# xmcd
#
# Track frame offsets:
#	150
#	12922
#	28415
#	40762
#	53675
#	67595
#	80867
#	93845
#	107037
#	119237
#	133727
#	148562
#	162530
#	175597
#	189002
#	203285
#	217942
#	232257
#	244012
#	260485
#	276152
#	288217
#	300997
#	312710
#
# Disc length: 4364 seconds
#
# Revision: 0
# Processed by: cddbd v1.4PL0 Copyright (c) Steve Scherf et al.
# Submitted via: dBpowerAMP V4.0
#
DISCID=52110a18
DTITLE=Various Artist - Easin' In Texas Blues
DYEAR=1996
DGENRE=Blues
TTITLE0=Henry Thomas-Cotton Field Blues
TTITLE1=Henry Thomas-Bull-Doze Blues
TTITLE2=Henry Thomas-Fishing Blues
TTITLE3=Dallas String Band-Dallas Rag
TTITLE4=Blind Lemon Jefferson-Got the Blues
TTITLE5=Blind Lemon Jefferson-Long Lonesome Blues
TTITLE6=Blind Lemon Jefferson-Bad Luck Blues
TTITLE7=Blind Lemon Jefferson-Match Box Blues
TTITLE8=Blind Lemon Jefferson-See That My Grave Is Kept Clean
TTITLE9=Hattie Hudson-Doggon My Good Luck Soul
TTITLE10=Texas Alexander-Double Crossing Blues
TTITLE11=J.T. Funny Paper Smith-Hungry Wolf Blues
TTITLE12=Ramblin' Thomas-Ground Hog Blues
TTITLE13=Bobbie Cadillac-Easin' In
TTITLE14=Texas Bill Day-Elm Street Blues
TTITLE15=Jack Ranger-Thieving Blues
TTITLE16=Little Hat Jones-Hurry Blues
TTITLE17=Jesse Thomas-Blue Goose Blues
TTITLE18=Joe Pullum-Black Gal What Makes Your Head So Hard
TTITLE19=Bernice Edwards-Ninth Street Stomp
TTITLE20=Whistlin' Alex Moore-Bull Cow Blues
TTITLE21=Black Ace-Triffling Woman
TTITLE22=Black Ace-You Gonna Need My Help Someday
TTITLE23=T-Bone Walker-Got A Break Baby
EXTD=Submitted by William Hale
EXTT0=
EXTT1=
EXTT2=
EXTT3=
EXTT4=
EXTT5=
EXTT6=
EXTT7=
EXTT8=
EXTT9=
EXTT10=
EXTT11=
EXTT12=
EXTT13=
EXTT14=
EXTT15=
EXTT16=
EXTT17=
EXTT18=
EXTT19=
EXTT20=
EXTT21=
EXTT22=
EXTT23=
PLAYORDER=
